# xmcd
#
# Track frame offsets: 
#        150
#        18010
#        31137
#        49107
#        69260
#        83050
#        94315
#        118142
#        137860
#        159400
#        175112
#        189747
#
# Disc length: 2798 seconds
#
# Revision: 5
# Processed by: cddbd v1.5.2PL0 Copyright (c) Steve Scherf et al.
# Submitted via: ExactAudioCopy v0.99pb4
#
DISCID=950aec0c
DTITLE=Steve Hackett - Blues With A Feeling
DYEAR=1994
DGENRE=Rock'n'Blues
TTITLE0=Born In Chicago
TTITLE1=The Stumble
TTITLE2=Love Of Another Kind
TTITLE3=Way Down South
TTITLE4=A Blue Part Of Town
TTITLE5=Footloose
TTITLE6=Tombstone Roller
TTITLE7=Blues With A Feeling
TTITLE8=Big Dallas Sky
TTITLE9=The 13th Floor
TTITLE10=So Many Roads
TTITLE11=Solid Ground
EXTD=YEAR: 1994
EXTT0=
EXTT1=
EXTT2=
EXTT3=
EXTT4=
EXTT5=
EXTT6=
EXTT7=
EXTT8=
EXTT9=
EXTT10=
EXTT11=
PLAYORDER=
